<svg width="18" height="16" viewBox="0 0 18 16" fill="none" xmlns="http://www.w3.org/2000/svg">
<path d="M9.03818 1.10339C7.7799 1.10339 6.5743 1.39486 5.45508 1.88241L6.30833 2.75445C7.17293 2.43433 8.08951 2.2483 9.03818 2.2483C12.5028 2.2483 15.6169 4.54093 16.846 7.97291C16.3777 9.28078 15.6328 10.4196 14.7018 11.3328L15.4895 12.1379C16.5828 11.0606 17.4502 9.71289 17.9701 8.15795C18.01 8.03776 18.01 7.90806 17.9701 7.78787C16.6332 3.7896 13.0438 1.10339 9.03818 1.10339Z" fill="#E1E6E8"/>
<path d="M11.372 7.77076L12.4166 8.82737C12.4926 8.53875 12.5461 8.24118 12.5461 7.92859C12.5461 5.99031 10.9874 4.41357 9.07115 4.41357C8.76212 4.41357 8.46794 4.46773 8.18262 4.5446L9.22718 5.60121C10.3784 5.68043 11.2937 6.60625 11.372 7.77076Z" fill="#E1E6E8"/>
<path d="M1.12712 0.808062L3.41255 3.12515C1.89891 4.28573 0.68376 5.87611 0.0301399 7.81529C-0.0100466 7.93527 -0.0100466 8.06473 0.0301399 8.1847C1.37534 12.1758 4.98712 14.8571 9.01779 14.8571C10.6933 14.8571 12.2758 14.358 13.6718 13.5266L16.1115 16L16.9085 15.192L1.92408 0L1.12709 0.808029L1.12712 0.808062ZM9.01782 13.7143C5.53154 13.7143 2.39804 11.4258 1.16125 8.00003C1.77125 6.31022 2.86745 4.93573 4.21707 3.94081L6.26727 6.01941C5.87326 6.58003 5.6361 7.26075 5.6361 8C5.6361 9.89061 7.15301 11.4286 9.01782 11.4286C9.74697 11.4286 10.4184 11.1881 10.9714 10.7887L12.847 12.6903C11.6829 13.3298 10.3863 13.7143 9.01782 13.7143ZM7.08272 6.84618L10.1559 9.96198C9.8206 10.1627 9.43471 10.2858 9.01782 10.2858C7.77443 10.2858 6.76335 9.26065 6.76335 8.00006C6.76335 7.5774 6.8847 7.18616 7.08272 6.84618Z" fill="#E1E6E8"/>
</svg>
