<svg width="24" height="30" viewBox="0 0 24 30" fill="none" xmlns="http://www.w3.org/2000/svg">
<path d="M22.9065 26.4526L21.6679 12.5128C21.6476 12.2844 21.4462 12.1163 21.2176 12.136C20.9892 12.1563 20.8206 12.3579 20.8408 12.5863L22.0394 26.0743H5.26495C5.03563 26.0743 4.84981 26.2601 4.84981 26.4894C4.84981 26.7187 5.03563 26.9045 5.26495 26.9045H22.0747C21.9736 27.7743 21.2304 28.5097 20.2644 28.5097H3.15274C2.18657 28.5097 1.44348 27.7742 1.34246 26.9045H3.32438C3.5537 26.9045 3.73952 26.7187 3.73952 26.4894C3.73952 26.2601 3.5537 26.0743 3.32438 26.0743H1.37772L2.85605 9.43746C2.94024 8.49056 3.72053 7.77647 4.6712 7.77647H6.5889V10.4627C6.5889 10.692 6.77472 10.8778 7.00404 10.8778C7.23336 10.8778 7.41918 10.692 7.41918 10.4627V7.77647H15.9979V10.4721C15.9979 10.7015 16.1837 10.8873 16.413 10.8873C16.6424 10.8873 16.8282 10.7015 16.8282 10.4721V7.77647H18.7459C19.6965 7.77647 20.4768 8.49051 20.561 9.43746L20.6665 10.6252C20.6868 10.8535 20.8886 11.0221 21.1168 11.002C21.3452 10.9817 21.5138 10.7801 21.4936 10.5517L21.3881 9.36395C21.2656 7.98564 20.1297 6.9462 18.7459 6.9462H16.8282V6.11963C16.8282 3.29665 14.5315 1 11.7085 1C8.88555 1 6.5889 3.29665 6.5889 6.11963V6.9462H4.6712C3.28741 6.9462 2.15154 7.98559 2.02904 9.36395L0.510584 26.4526C0.372869 28.003 1.59669 29.34 3.15274 29.34H20.2644C21.0068 29.34 21.7201 29.0259 22.2213 28.4782C22.7225 27.9305 22.9722 27.1921 22.9065 26.4526ZM7.41918 6.11963C7.41918 3.75451 9.34342 1.83027 11.7085 1.83027C14.0737 1.83027 15.9979 3.75451 15.9979 6.11963V6.9462H7.41918V6.11963Z" fill="white" stroke="white" stroke-width="0.8"/>
</svg>
