<svg width="31" height="31" viewBox="0 0 31 31" fill="none" xmlns="http://www.w3.org/2000/svg">
<circle cx="15.6193" cy="15.3984" r="14.5" transform="rotate(-180 15.6193 15.3984)" stroke="white"/>
<mask id="path-2-outside-1" maskUnits="userSpaceOnUse" x="7.91907" y="9.39844" width="15" height="12" fill="black">
<rect fill="white" x="7.91907" y="9.39844" width="15" height="12"/>
<path fill-rule="evenodd" clip-rule="evenodd" d="M14.5487 10.6612C14.5484 10.5158 14.4303 10.3982 14.285 10.3984C14.2153 10.3984 14.1484 10.4261 14.0991 10.4753L9.36645 15.208C9.31512 15.256 9.28304 15.3243 9.28303 15.4002C9.28303 15.479 9.31765 15.5497 9.37251 15.5979L14.0991 20.3245C14.2011 20.4231 14.3628 20.4231 14.4649 20.3245C14.5694 20.2235 14.5724 20.0569 14.4713 19.9523L10.182 15.6634L21.6558 15.6634C21.8012 15.6634 21.9191 15.5456 21.9191 15.4002C21.9191 15.2548 21.8012 15.1369 21.6558 15.1369L10.1819 15.1369L14.4713 10.8481C14.521 10.7986 14.5488 10.7313 14.5487 10.6612Z"/>
</mask>
<path fill-rule="evenodd" clip-rule="evenodd" d="M14.5487 10.6612C14.5484 10.5158 14.4303 10.3982 14.285 10.3984C14.2153 10.3984 14.1484 10.4261 14.0991 10.4753L9.36645 15.208C9.31512 15.256 9.28304 15.3243 9.28303 15.4002C9.28303 15.479 9.31765 15.5497 9.37251 15.5979L14.0991 20.3245C14.2011 20.4231 14.3628 20.4231 14.4649 20.3245C14.5694 20.2235 14.5724 20.0569 14.4713 19.9523L10.182 15.6634L21.6558 15.6634C21.8012 15.6634 21.9191 15.5456 21.9191 15.4002C21.9191 15.2548 21.8012 15.1369 21.6558 15.1369L10.1819 15.1369L14.4713 10.8481C14.521 10.7986 14.5488 10.7313 14.5487 10.6612Z" fill="white"/>
<path d="M14.285 10.3984L14.285 10.7984L14.2857 10.7984L14.285 10.3984ZM14.5487 10.6612L14.9487 10.6605L14.9487 10.6605L14.5487 10.6612ZM14.0991 10.4753L13.8166 10.1922L13.8163 10.1924L14.0991 10.4753ZM9.36645 15.208L9.63992 15.5002L9.64929 15.4908L9.36645 15.208ZM9.28303 15.4002L8.88303 15.4001L8.88303 15.4002L9.28303 15.4002ZM9.37251 15.5979L9.65535 15.3151L9.64629 15.306L9.63667 15.2976L9.37251 15.5979ZM14.0991 20.3245L13.8162 20.6074L13.8212 20.6123L14.0991 20.3245ZM14.4649 20.3245L14.7427 20.6123L14.7428 20.6122L14.4649 20.3245ZM14.4713 19.9523L14.7591 19.6743L14.7542 19.6694L14.4713 19.9523ZM10.182 15.6634L10.182 15.2634L9.2162 15.2634L9.89914 15.9463L10.182 15.6634ZM10.1819 15.1369L9.89911 14.8541L9.21616 15.5369L10.1819 15.5369L10.1819 15.1369ZM14.4713 10.8481L14.1888 10.5649L14.1885 10.5652L14.4713 10.8481ZM14.2857 10.7984C14.2101 10.7986 14.1488 10.7374 14.1487 10.662L14.9487 10.6605C14.948 10.2943 14.6506 9.99775 14.2842 9.99844L14.2857 10.7984ZM14.3817 10.7584C14.356 10.7841 14.3212 10.7984 14.285 10.7984L14.285 9.99844C14.1094 9.99844 13.9409 10.0681 13.8166 10.1922L14.3817 10.7584ZM9.64929 15.4908L14.382 10.7581L13.8163 10.1924L9.0836 14.9251L9.64929 15.4908ZM9.68303 15.4003C9.68302 15.4396 9.66586 15.4756 9.63977 15.5L9.09312 14.9159C8.96438 15.0364 8.88306 15.2091 8.88303 15.4001L9.68303 15.4003ZM9.63667 15.2976C9.66449 15.322 9.68303 15.3592 9.68303 15.4002L8.88303 15.4002C8.88303 15.5988 8.97081 15.7773 9.10835 15.8983L9.63667 15.2976ZM14.382 20.0417L9.65535 15.3151L9.08967 15.8808L13.8163 20.6074L14.382 20.0417ZM14.187 20.0368C14.24 19.9857 14.324 19.9856 14.377 20.0368L13.8212 20.6123C14.0783 20.8605 14.4857 20.8605 14.7427 20.6123L14.187 20.0368ZM14.1836 20.2302C14.1311 20.1758 14.1327 20.0893 14.187 20.0369L14.7428 20.6122C15.0062 20.3578 15.0136 19.9379 14.759 19.6744L14.1836 20.2302ZM9.89914 15.9463L14.1885 20.2352L14.7542 19.6694L10.4648 15.3806L9.89914 15.9463ZM21.6558 15.2634L10.182 15.2634L10.182 16.0634L21.6558 16.0634L21.6558 15.2634ZM21.5191 15.4002C21.5191 15.3247 21.5803 15.2634 21.6558 15.2634L21.6558 16.0634C22.0221 16.0634 22.3191 15.7665 22.3191 15.4002L21.5191 15.4002ZM21.6558 15.5369C21.5803 15.5369 21.5191 15.4758 21.5191 15.4002L22.3191 15.4002C22.3191 15.0338 22.0221 14.7369 21.6558 14.7369L21.6558 15.5369ZM10.1819 15.5369L21.6558 15.5369L21.6558 14.7369L10.1819 14.7369L10.1819 15.5369ZM14.1885 10.5652L9.89911 14.8541L10.4648 15.4198L14.7542 11.1309L14.1885 10.5652ZM14.1487 10.6619C14.1486 10.6255 14.1631 10.5906 14.1888 10.5649L14.7538 11.1313C14.8789 11.0066 14.949 10.8371 14.9487 10.6605L14.1487 10.6619Z" fill="white" mask="url(#path-2-outside-1)"/>
</svg>
