<svg width="32" height="32" viewBox="0 0 32 32" fill="none" xmlns="http://www.w3.org/2000/svg">
<rect width="32" height="32" rx="16" fill="#00AC41"/>
<path d="M23.8628 9.13732C23.7302 9.00469 23.5312 8.96391 23.3572 9.03354L8.29467 15.0585C8.12233 15.1274 8.00692 15.2915 8.0003 15.4771C7.9937 15.6626 8.0972 15.8345 8.2642 15.9155L14.2038 18.7961L17.0845 24.7358C17.1631 24.8978 17.3272 25 17.5062 25C17.5117 25 17.5173 24.9999 17.5229 24.9997C17.7084 24.9931 17.8726 24.8777 17.9415 24.7053L23.9665 9.64288C24.0361 9.46876 23.9954 9.26991 23.8628 9.13732ZM9.62793 15.5349L21.585 10.7521L14.4591 17.878L9.62793 15.5349ZM17.4651 23.3721L15.122 18.5409L22.2479 11.415L17.4651 23.3721Z" fill="white"/>
</svg>
