<svg width="31" height="31" viewBox="0 0 31 31" fill="none" xmlns="http://www.w3.org/2000/svg">
<circle cx="15.6193" cy="15.6953" r="15" fill="#00AC41"/>
<mask id="path-2-outside-1" maskUnits="userSpaceOnUse" x="7.91907" y="9.69531" width="15" height="12" fill="black">
<rect fill="white" x="7.91907" y="9.69531" width="15" height="12"/>
<path fill-rule="evenodd" clip-rule="evenodd" d="M14.5487 10.9581C14.5484 10.8127 14.4303 10.695 14.285 10.6953C14.2153 10.6953 14.1484 10.723 14.0991 10.7722L9.36647 15.5048C9.31513 15.5529 9.28304 15.6212 9.28303 15.6971C9.28303 15.7759 9.31765 15.8466 9.37251 15.8948L14.0991 20.6214C14.2011 20.7199 14.3628 20.7199 14.4649 20.6214C14.5694 20.5204 14.5724 20.3537 14.4713 20.2492L10.182 15.9603L21.6558 15.9603C21.8012 15.9603 21.9191 15.8424 21.9191 15.6971C21.9191 15.5517 21.8012 15.4338 21.6558 15.4338L10.1819 15.4338L14.4713 11.145C14.521 11.0954 14.5488 11.0282 14.5487 10.9581Z"/>
</mask>
<path fill-rule="evenodd" clip-rule="evenodd" d="M14.5487 10.9581C14.5484 10.8127 14.4303 10.695 14.285 10.6953C14.2153 10.6953 14.1484 10.723 14.0991 10.7722L9.36647 15.5048C9.31513 15.5529 9.28304 15.6212 9.28303 15.6971C9.28303 15.7759 9.31765 15.8466 9.37251 15.8948L14.0991 20.6214C14.2011 20.7199 14.3628 20.7199 14.4649 20.6214C14.5694 20.5204 14.5724 20.3537 14.4713 20.2492L10.182 15.9603L21.6558 15.9603C21.8012 15.9603 21.9191 15.8424 21.9191 15.6971C21.9191 15.5517 21.8012 15.4338 21.6558 15.4338L10.1819 15.4338L14.4713 11.145C14.521 11.0954 14.5488 11.0282 14.5487 10.9581Z" fill="white"/>
<path d="M14.285 10.6953L14.285 11.0953L14.2857 11.0953L14.285 10.6953ZM14.5487 10.9581L14.9487 10.9574L14.9487 10.9574L14.5487 10.9581ZM14.0991 10.7722L13.8166 10.489L13.8163 10.4893L14.0991 10.7722ZM9.36647 15.5048L9.63991 15.7971L9.64931 15.7877L9.36647 15.5048ZM9.28303 15.6971L8.88303 15.697L8.88303 15.6971L9.28303 15.6971ZM9.37251 15.8948L9.65535 15.612L9.64629 15.6029L9.63667 15.5944L9.37251 15.8948ZM14.0991 20.6214L13.8162 20.9043L13.8212 20.9091L14.0991 20.6214ZM14.4649 20.6214L14.7427 20.9092L14.7428 20.9091L14.4649 20.6214ZM14.4713 20.2492L14.7591 19.9712L14.7542 19.9663L14.4713 20.2492ZM10.182 15.9603L10.182 15.5603L9.2162 15.5603L9.89914 16.2432L10.182 15.9603ZM21.6558 15.9603L21.6558 15.5603L21.6558 15.9603ZM10.1819 15.4338L9.89911 15.151L9.21616 15.8338L10.1819 15.8338L10.1819 15.4338ZM14.4713 11.145L14.1888 10.8618L14.1885 10.8621L14.4713 11.145ZM14.2857 11.0953C14.2101 11.0955 14.1488 11.0343 14.1487 10.9588L14.9487 10.9574C14.948 10.5911 14.6506 10.2946 14.2842 10.2953L14.2857 11.0953ZM14.3817 11.0553C14.356 11.0809 14.3212 11.0953 14.285 11.0953L14.285 10.2953C14.1093 10.2953 13.9409 10.365 13.8166 10.489L14.3817 11.0553ZM9.64931 15.7877L14.382 11.055L13.8163 10.4893L9.08362 15.222L9.64931 15.7877ZM9.68303 15.6971C9.68302 15.7365 9.66586 15.7725 9.63976 15.7969L9.09317 15.2127C8.9644 15.3332 8.88306 15.5059 8.88303 15.697L9.68303 15.6971ZM9.63667 15.5944C9.66448 15.6189 9.68303 15.6561 9.68303 15.6971L8.88303 15.6971C8.88303 15.8957 8.97082 16.0742 9.10835 16.1952L9.63667 15.5944ZM14.382 20.3386L9.65535 15.612L9.08967 16.1777L13.8163 20.9043L14.382 20.3386ZM14.187 20.3337C14.24 20.2825 14.324 20.2825 14.377 20.3337L13.8212 20.9091C14.0783 21.1574 14.4857 21.1573 14.7427 20.9092L14.187 20.3337ZM14.1836 20.5271C14.1311 20.4727 14.1327 20.3861 14.187 20.3337L14.7428 20.9091C15.0062 20.6547 15.0136 20.2348 14.759 19.9713L14.1836 20.5271ZM9.89914 16.2432L14.1885 20.532L14.7542 19.9663L10.4648 15.6775L9.89914 16.2432ZM21.6558 15.5603L10.182 15.5603L10.182 16.3603L21.6558 16.3603L21.6558 15.5603ZM21.5191 15.6971C21.5191 15.6215 21.5803 15.5603 21.6558 15.5603L21.6558 16.3603C22.0221 16.3603 22.3191 16.0634 22.3191 15.6971L21.5191 15.6971ZM21.6558 15.8338C21.5803 15.8338 21.5191 15.7726 21.5191 15.6971L22.3191 15.6971C22.3191 15.3307 22.0221 15.0338 21.6558 15.0338L21.6558 15.8338ZM10.1819 15.8338L21.6558 15.8338L21.6558 15.0338L10.1819 15.0338L10.1819 15.8338ZM14.1885 10.8621L9.89911 15.151L10.4648 15.7167L14.7542 11.4278L14.1885 10.8621ZM14.1487 10.9588C14.1486 10.9224 14.1631 10.8875 14.1888 10.8618L14.7538 11.4281C14.8788 11.3034 14.949 11.134 14.9487 10.9574L14.1487 10.9588Z" fill="white" mask="url(#path-2-outside-1)"/>
</svg>
