<svg width="58" height="41" viewBox="0 0 58 41" fill="none" xmlns="http://www.w3.org/2000/svg">
<path d="M56.524 8.72542C56.524 8.72542 55.9718 4.80763 54.2702 3.08052C52.116 0.81711 49.6993 0.80802 48.595 0.67167C40.6661 0.0989991 28.7727 0.098999 28.7727 0.098999H28.7455C28.7455 0.098999 16.8522 0.0989991 8.92322 0.67167C7.81896 0.80802 5.40227 0.81711 3.24806 3.08052C1.54641 4.80763 0.994286 8.72542 0.994286 8.72542C0.994286 8.72542 0.433105 13.325 0.433105 17.9336V22.2514C0.433105 26.8509 1.00334 31.4505 1.00334 31.4505C1.00334 31.4505 1.55547 35.3683 3.25711 37.0954C5.41132 39.3588 8.24437 39.286 9.5025 39.5224C14.0281 39.9587 28.7636 40.0951 28.7636 40.0951C28.7636 40.0951 40.6661 40.0769 48.595 39.5042C49.6993 39.3679 52.116 39.3588 54.2702 37.0954C55.9718 35.3683 56.524 31.4505 56.524 31.4505C56.524 31.4505 57.0942 26.8509 57.0942 22.2514V17.9336C57.0942 13.325 56.524 8.72542 56.524 8.72542Z" fill="black" fill-opacity="0.5"/>
<path d="M22.916 11.4889V27.4691L38.2218 19.5063L22.916 11.4889Z" fill="white"/>
</svg>
